<svg xmlns="http://www.w3.org/2000/svg" xmlns:xlink="http://www.w3.org/1999/xlink" width="500" zoomAndPan="magnify" viewBox="0 0 375 374.999991" height="500" preserveAspectRatio="xMidYMid meet" version="1.0"><defs><g/><clipPath id="2471169aa1"><path d="M 75 0 L 300 0 C 341.421875 0 375 33.578125 375 75 L 375 300 C 375 341.421875 341.421875 375 300 375 L 75 375 C 33.578125 375 0 341.421875 0 300 L 0 75 C 0 33.578125 33.578125 0 75 0 " clip-rule="nonzero"/></clipPath></defs><g clip-path="url(#2471169aa1)"><path fill="#335eea" d="M 0 0 L 374.414062 0 L 374.414062 374.414062 L 0 374.414062 Z M 0 0 " fill-opacity="1" fill-rule="nonzero"/></g><g fill="#ffffff" fill-opacity="1"><g transform="translate(76.216002, 280.56176)"><g><path d="M 16.265625 0 L 16.265625 -187.109375 L 55.828125 -187.109375 L 55.828125 -32.609375 L 136.046875 -32.609375 L 136.046875 0 Z M 16.265625 0 "/></g></g></g><g fill="#ffffff" fill-opacity="1"><g transform="translate(222.21574, 280.56176)"><g><path d="M 38.28125 2.375 C 32.25 2.375 27.070312 0.242188 22.75 -4.015625 C 18.425781 -8.285156 16.296875 -13.460938 16.359375 -19.546875 C 16.296875 -25.515625 18.425781 -30.628906 22.75 -34.890625 C 27.070312 -39.160156 32.25 -41.296875 38.28125 -41.296875 C 44.125 -41.296875 49.222656 -39.160156 53.578125 -34.890625 C 57.941406 -30.628906 60.148438 -25.515625 60.203125 -19.546875 C 60.148438 -13.460938 57.941406 -8.285156 53.578125 -4.015625 C 49.222656 0.242188 44.125 2.375 38.28125 2.375 Z M 38.28125 2.375 "/></g></g></g></svg>