<svg xmlns="http://www.w3.org/2000/svg" xmlns:xlink="http://www.w3.org/1999/xlink" width="500" zoomAndPan="magnify" viewBox="0 0 375 129.000003" height="172" preserveAspectRatio="xMidYMid meet" version="1.0"><defs><g/></defs><g fill="#1c94ff" fill-opacity="1"><g transform="translate(52.644848, 118.38905)"><g><path d="M 0.53125 -24.4375 L 5.96875 -24.4375 L 9.4375 -8.84375 L 9.859375 -6.40625 L 9.921875 -6.40625 L 10.328125 -8.84375 L 13.328125 -24.4375 L 18.734375 -24.4375 L 21.953125 -8.921875 L 22.390625 -6.40625 L 22.453125 -6.40625 L 22.890625 -8.921875 L 26.4375 -24.4375 L 31.625 -24.4375 L 24.734375 0 L 19.828125 0 L 16.375 -17.15625 L 16.0625 -19.234375 L 16 -19.234375 L 15.671875 -17.15625 L 12.203125 0 L 7.453125 0 Z M 0.53125 -24.4375 "/></g></g></g><g fill="#1c94ff" fill-opacity="1"><g transform="translate(84.801926, 118.38905)"><g><path d="M 2.328125 -18.125 L 6.90625 -18.125 L 6.90625 -14.984375 L 6.96875 -14.984375 C 7.519531 -16.160156 8.1875 -17.054688 8.96875 -17.671875 C 9.757812 -18.285156 10.75 -18.59375 11.9375 -18.59375 C 12.25 -18.59375 12.550781 -18.566406 12.84375 -18.515625 L 12.84375 -13.6875 C 12.625 -13.726562 12.171875 -13.75 11.484375 -13.75 C 10.003906 -13.75 8.898438 -13.390625 8.171875 -12.671875 C 7.453125 -11.960938 7.09375 -10.878906 7.09375 -9.421875 L 7.09375 0 L 2.328125 0 Z M 2.328125 -18.125 "/></g></g></g><g fill="#1c94ff" fill-opacity="1"><g transform="translate(98.229791, 118.38905)"><g><path d="M 7.09375 -20.265625 L 2.328125 -20.265625 L 2.328125 -24.6875 L 7.09375 -24.6875 Z M 7.09375 -18.125 L 7.09375 0 L 2.328125 0 L 2.328125 -18.125 Z M 7.09375 -18.125 "/></g></g></g><g fill="#1c94ff" fill-opacity="1"><g transform="translate(107.652563, 118.38905)"><g><path d="M 7.640625 -18.125 L 10.609375 -18.125 L 10.609375 -14.71875 L 7.640625 -14.71875 L 7.640625 -4.5625 C 7.640625 -4.082031 7.769531 -3.769531 8.03125 -3.625 C 8.289062 -3.476562 8.695312 -3.40625 9.25 -3.40625 C 9.789062 -3.40625 10.242188 -3.425781 10.609375 -3.46875 L 10.609375 0.0625 C 9.910156 0.175781 9.050781 0.234375 8.03125 0.234375 C 6.144531 0.234375 4.8125 -0.0507812 4.03125 -0.625 C 3.257812 -1.195312 2.875 -2.222656 2.875 -3.703125 L 2.875 -14.71875 L 0.421875 -14.71875 L 0.421875 -18.125 L 2.875 -18.125 L 2.875 -23.015625 L 7.640625 -23.015625 Z M 7.640625 -18.125 "/></g></g></g><g fill="#1c94ff" fill-opacity="1"><g transform="translate(119.08619, 118.38905)"><g><path d="M 13.609375 -10.859375 C 13.515625 -12.003906 13.140625 -12.925781 12.484375 -13.625 C 11.828125 -14.320312 10.976562 -14.671875 9.9375 -14.671875 C 7.675781 -14.671875 6.382812 -13.398438 6.0625 -10.859375 Z M 18.3125 -5.296875 C 17.757812 -3.429688 16.769531 -2 15.34375 -1 C 13.914062 -0.0078125 12.253906 0.484375 10.359375 0.484375 C 7.378906 0.484375 5.097656 -0.335938 3.515625 -1.984375 C 1.941406 -3.628906 1.15625 -5.910156 1.15625 -8.828125 C 1.15625 -11.753906 1.894531 -14.113281 3.375 -15.90625 C 4.863281 -17.695312 7.078125 -18.59375 10.015625 -18.59375 C 12.648438 -18.59375 14.722656 -17.753906 16.234375 -16.078125 C 17.753906 -14.398438 18.515625 -11.910156 18.515625 -8.609375 L 18.515625 -7.765625 L 5.9375 -7.765625 C 6.039062 -6.285156 6.46875 -5.175781 7.21875 -4.4375 C 7.976562 -3.707031 9.007812 -3.34375 10.3125 -3.34375 C 11.082031 -3.34375 11.75 -3.519531 12.3125 -3.875 C 12.882812 -4.238281 13.253906 -4.710938 13.421875 -5.296875 Z M 18.3125 -5.296875 "/></g></g></g><g fill="#1c94ff" fill-opacity="1"><g transform="translate(138.596479, 118.38905)"><g/></g></g><g fill="#1c94ff" fill-opacity="1"><g transform="translate(147.736734, 118.38905)"><g><path d="M 13.421875 0 L 8.3125 0 L 8.3125 -9.234375 L -0.140625 -24.4375 L 5.890625 -24.4375 L 10.953125 -13.8125 L 15.796875 -24.4375 L 21.578125 -24.4375 L 13.421875 -9.15625 Z M 13.421875 0 "/></g></g></g><g fill="#1c94ff" fill-opacity="1"><g transform="translate(169.457302, 118.38905)"><g><path d="M 14.765625 -9.0625 C 14.765625 -10.789062 14.40625 -12.140625 13.6875 -13.109375 C 12.976562 -14.085938 11.898438 -14.578125 10.453125 -14.578125 C 9.109375 -14.578125 8.054688 -14.117188 7.296875 -13.203125 C 6.535156 -12.296875 6.15625 -10.914062 6.15625 -9.0625 C 6.15625 -7.238281 6.523438 -5.863281 7.265625 -4.9375 C 8.003906 -4.007812 9.066406 -3.546875 10.453125 -3.546875 C 11.878906 -3.546875 12.953125 -4.023438 13.671875 -4.984375 C 14.398438 -5.953125 14.765625 -7.3125 14.765625 -9.0625 Z M 19.671875 -9.0625 C 19.671875 -6.101562 18.816406 -3.769531 17.109375 -2.0625 C 15.410156 -0.363281 13.191406 0.484375 10.453125 0.484375 C 7.765625 0.484375 5.554688 -0.359375 3.828125 -2.046875 C 2.109375 -3.742188 1.25 -6.082031 1.25 -9.0625 C 1.25 -12.0625 2.109375 -14.398438 3.828125 -16.078125 C 5.554688 -17.753906 7.765625 -18.59375 10.453125 -18.59375 C 13.210938 -18.59375 15.4375 -17.734375 17.125 -16.015625 C 18.820312 -14.304688 19.671875 -11.988281 19.671875 -9.0625 Z M 19.671875 -9.0625 "/></g></g></g><g fill="#1c94ff" fill-opacity="1"><g transform="translate(190.363557, 118.38905)"><g><path d="M 18.546875 0 L 14 0 L 14 -2.5625 L 13.9375 -2.5625 C 12.726562 -0.53125 10.882812 0.484375 8.40625 0.484375 C 6.488281 0.484375 4.984375 -0.078125 3.890625 -1.203125 C 2.796875 -2.335938 2.25 -4.003906 2.25 -6.203125 L 2.25 -18.125 L 7.015625 -18.125 L 7.015625 -6.875 C 7.015625 -5.726562 7.28125 -4.882812 7.8125 -4.34375 C 8.34375 -3.8125 9.109375 -3.546875 10.109375 -3.546875 C 11.179688 -3.546875 12.0625 -3.898438 12.75 -4.609375 C 13.4375 -5.328125 13.78125 -6.34375 13.78125 -7.65625 L 13.78125 -18.125 L 18.546875 -18.125 Z M 18.546875 0 "/></g></g></g><g fill="#1c94ff" fill-opacity="1"><g transform="translate(211.236575, 118.38905)"><g><path d="M 2.328125 -18.125 L 6.90625 -18.125 L 6.90625 -14.984375 L 6.96875 -14.984375 C 7.519531 -16.160156 8.1875 -17.054688 8.96875 -17.671875 C 9.757812 -18.285156 10.75 -18.59375 11.9375 -18.59375 C 12.25 -18.59375 12.550781 -18.566406 12.84375 -18.515625 L 12.84375 -13.6875 C 12.625 -13.726562 12.171875 -13.75 11.484375 -13.75 C 10.003906 -13.75 8.898438 -13.390625 8.171875 -12.671875 C 7.453125 -11.960938 7.09375 -10.878906 7.09375 -9.421875 L 7.09375 0 L 2.328125 0 Z M 2.328125 -18.125 "/></g></g></g><g fill="#1c94ff" fill-opacity="1"><g transform="translate(224.66444, 118.38905)"><g/></g></g><g fill="#1c94ff" fill-opacity="1"><g transform="translate(233.804694, 118.38905)"><g><path d="M 22.25 -24.4375 L 22.25 0 L 17.140625 0 L 17.140625 -10.953125 L 7.59375 -10.953125 L 7.59375 0 L 2.5 0 L 2.5 -24.4375 L 7.59375 -24.4375 L 7.59375 -15.171875 L 17.140625 -15.171875 L 17.140625 -24.4375 Z M 22.25 -24.4375 "/></g></g></g><g fill="#1c94ff" fill-opacity="1"><g transform="translate(258.533238, 118.38905)"><g><path d="M 13.609375 -10.859375 C 13.515625 -12.003906 13.140625 -12.925781 12.484375 -13.625 C 11.828125 -14.320312 10.976562 -14.671875 9.9375 -14.671875 C 7.675781 -14.671875 6.382812 -13.398438 6.0625 -10.859375 Z M 18.3125 -5.296875 C 17.757812 -3.429688 16.769531 -2 15.34375 -1 C 13.914062 -0.0078125 12.253906 0.484375 10.359375 0.484375 C 7.378906 0.484375 5.097656 -0.335938 3.515625 -1.984375 C 1.941406 -3.628906 1.15625 -5.910156 1.15625 -8.828125 C 1.15625 -11.753906 1.894531 -14.113281 3.375 -15.90625 C 4.863281 -17.695312 7.078125 -18.59375 10.015625 -18.59375 C 12.648438 -18.59375 14.722656 -17.753906 16.234375 -16.078125 C 17.753906 -14.398438 18.515625 -11.910156 18.515625 -8.609375 L 18.515625 -7.765625 L 5.9375 -7.765625 C 6.039062 -6.285156 6.46875 -5.175781 7.21875 -4.4375 C 7.976562 -3.707031 9.007812 -3.34375 10.3125 -3.34375 C 11.082031 -3.34375 11.75 -3.519531 12.3125 -3.875 C 12.882812 -4.238281 13.253906 -4.710938 13.421875 -5.296875 Z M 18.3125 -5.296875 "/></g></g></g><g fill="#1c94ff" fill-opacity="1"><g transform="translate(278.043527, 118.38905)"><g><path d="M 12.71875 -8.78125 C 12.132812 -8.363281 10.992188 -8.035156 9.296875 -7.796875 C 7.878906 -7.597656 6.953125 -7.28125 6.515625 -6.84375 C 6.078125 -6.40625 5.859375 -5.828125 5.859375 -5.109375 C 5.859375 -4.378906 6.085938 -3.832031 6.546875 -3.46875 C 7.015625 -3.101562 7.570312 -2.921875 8.21875 -2.921875 C 9.4375 -2.921875 10.488281 -3.257812 11.375 -3.9375 C 12.269531 -4.625 12.71875 -5.476562 12.71875 -6.5 Z M 17.375 -3.546875 C 17.375 -2.710938 17.453125 -2.054688 17.609375 -1.578125 C 17.765625 -1.109375 18.035156 -0.820312 18.421875 -0.71875 L 18.421875 0 L 13.3125 0 C 13.09375 -0.613281 12.9375 -1.328125 12.84375 -2.140625 C 11.289062 -0.390625 9.273438 0.484375 6.796875 0.484375 C 5.078125 0.484375 3.691406 0.0078125 2.640625 -0.9375 C 1.597656 -1.894531 1.078125 -3.179688 1.078125 -4.796875 C 1.078125 -6.347656 1.535156 -7.628906 2.453125 -8.640625 C 3.367188 -9.648438 4.734375 -10.289062 6.546875 -10.5625 L 11 -11.203125 C 11.613281 -11.296875 12.050781 -11.46875 12.3125 -11.71875 C 12.582031 -11.96875 12.71875 -12.285156 12.71875 -12.671875 C 12.71875 -13.367188 12.460938 -13.894531 11.953125 -14.25 C 11.441406 -14.613281 10.660156 -14.796875 9.609375 -14.796875 C 8.515625 -14.796875 7.710938 -14.59375 7.203125 -14.1875 C 6.703125 -13.789062 6.390625 -13.144531 6.265625 -12.25 L 1.65625 -12.25 C 1.894531 -14.457031 2.644531 -16.066406 3.90625 -17.078125 C 5.175781 -18.085938 7.203125 -18.59375 9.984375 -18.59375 C 12.222656 -18.59375 14.015625 -18.140625 15.359375 -17.234375 C 16.703125 -16.335938 17.375 -15.039062 17.375 -13.34375 Z M 17.375 -3.546875 "/></g></g></g><g fill="#1c94ff" fill-opacity="1"><g transform="translate(297.487341, 118.38905)"><g><path d="M 2.328125 -18.125 L 6.90625 -18.125 L 6.90625 -14.984375 L 6.96875 -14.984375 C 7.519531 -16.160156 8.1875 -17.054688 8.96875 -17.671875 C 9.757812 -18.285156 10.75 -18.59375 11.9375 -18.59375 C 12.25 -18.59375 12.550781 -18.566406 12.84375 -18.515625 L 12.84375 -13.6875 C 12.625 -13.726562 12.171875 -13.75 11.484375 -13.75 C 10.003906 -13.75 8.898438 -13.390625 8.171875 -12.671875 C 7.453125 -11.960938 7.09375 -10.878906 7.09375 -9.421875 L 7.09375 0 L 2.328125 0 Z M 2.328125 -18.125 "/></g></g></g><g fill="#1c94ff" fill-opacity="1"><g transform="translate(310.915206, 118.38905)"><g><path d="M 7.640625 -18.125 L 10.609375 -18.125 L 10.609375 -14.71875 L 7.640625 -14.71875 L 7.640625 -4.5625 C 7.640625 -4.082031 7.769531 -3.769531 8.03125 -3.625 C 8.289062 -3.476562 8.695312 -3.40625 9.25 -3.40625 C 9.789062 -3.40625 10.242188 -3.425781 10.609375 -3.46875 L 10.609375 0.0625 C 9.910156 0.175781 9.050781 0.234375 8.03125 0.234375 C 6.144531 0.234375 4.8125 -0.0507812 4.03125 -0.625 C 3.257812 -1.195312 2.875 -2.222656 2.875 -3.703125 L 2.875 -14.71875 L 0.421875 -14.71875 L 0.421875 -18.125 L 2.875 -18.125 L 2.875 -23.015625 L 7.640625 -23.015625 Z M 7.640625 -18.125 "/></g></g></g><g fill="#1c94ff" fill-opacity="1"><g transform="translate(66.239161, 65.450689)"><g><path d="M 14.25 -8.296875 L 37.03125 -8.296875 L 37.03125 0 L 4.671875 0 L 4.671875 -45.828125 L 14.25 -45.828125 Z M 14.25 -8.296875 "/></g></g></g><g fill="#1c94ff" fill-opacity="1"><g transform="translate(104.356013, 65.450689)"><g><path d="M 25.53125 -20.359375 C 25.34375 -22.515625 24.632812 -24.25 23.40625 -25.5625 C 22.1875 -26.875 20.597656 -27.53125 18.640625 -27.53125 C 14.398438 -27.53125 11.976562 -25.140625 11.375 -20.359375 Z M 34.359375 -9.9375 C 33.316406 -6.425781 31.453125 -3.738281 28.765625 -1.875 C 26.085938 -0.0195312 22.972656 0.90625 19.421875 0.90625 C 13.828125 0.90625 9.554688 -0.632812 6.609375 -3.71875 C 3.660156 -6.8125 2.1875 -11.085938 2.1875 -16.546875 C 2.1875 -22.035156 3.570312 -26.457031 6.34375 -29.8125 C 9.113281 -33.175781 13.253906 -34.859375 18.765625 -34.859375 C 23.710938 -34.859375 27.609375 -33.285156 30.453125 -30.140625 C 33.304688 -27.003906 34.734375 -22.335938 34.734375 -16.140625 L 34.734375 -14.5625 L 11.125 -14.5625 C 11.332031 -11.789062 12.144531 -9.710938 13.5625 -8.328125 C 14.976562 -6.953125 16.898438 -6.265625 19.328125 -6.265625 C 20.785156 -6.265625 22.039062 -6.601562 23.09375 -7.28125 C 24.15625 -7.957031 24.84375 -8.84375 25.15625 -9.9375 Z M 34.359375 -9.9375 "/></g></g></g><g fill="#1c94ff" fill-opacity="1"><g transform="translate(140.945699, 65.450689)"><g><path d="M 13.3125 0 L 4.359375 0 L 4.359375 -45.828125 L 13.3125 -45.828125 L 13.3125 -21.078125 L 24.53125 -33.984375 L 35.53125 -33.984375 L 23.53125 -20.828125 L 35.84375 0 L 25.125 0 L 17.015625 -14.5625 L 13.3125 -10.71875 Z M 13.3125 0 "/></g></g></g><g fill="#1c94ff" fill-opacity="1"><g transform="translate(176.63155, 65.450689)"><g><path d="M 35.078125 0 L 26.125 0 L 26.125 -21.109375 C 26.125 -23.179688 25.648438 -24.738281 24.703125 -25.78125 C 23.753906 -26.820312 22.296875 -27.34375 20.328125 -27.34375 C 18.097656 -27.34375 16.367188 -26.601562 15.140625 -25.125 C 13.921875 -23.644531 13.3125 -21.765625 13.3125 -19.484375 L 13.3125 0 L 4.359375 0 L 4.359375 -45.828125 L 13.3125 -45.828125 L 13.3125 -29.640625 L 13.4375 -29.640625 C 15.46875 -33.117188 18.78125 -34.859375 23.375 -34.859375 C 26.914062 -34.859375 29.75 -33.820312 31.875 -31.75 C 34.007812 -29.6875 35.078125 -26.9375 35.078125 -23.5 Z M 35.078125 0 "/></g></g></g><g fill="#1c94ff" fill-opacity="1"><g transform="translate(215.589903, 65.450689)"><g><path d="M 23.84375 -16.453125 C 22.75 -15.691406 20.609375 -15.082031 17.421875 -14.625 C 14.765625 -14.25 13.023438 -13.648438 12.203125 -12.828125 C 11.378906 -12.003906 10.96875 -10.921875 10.96875 -9.578125 C 10.96875 -8.222656 11.40625 -7.203125 12.28125 -6.515625 C 13.15625 -5.828125 14.195312 -5.484375 15.40625 -5.484375 C 17.6875 -5.484375 19.660156 -6.125 21.328125 -7.40625 C 23.003906 -8.6875 23.84375 -10.28125 23.84375 -12.1875 Z M 32.578125 -6.640625 C 32.578125 -5.078125 32.722656 -3.851562 33.015625 -2.96875 C 33.304688 -2.09375 33.816406 -1.550781 34.546875 -1.34375 L 34.546875 0 L 24.96875 0 C 24.550781 -1.144531 24.257812 -2.484375 24.09375 -4.015625 C 21.1875 -0.734375 17.40625 0.90625 12.75 0.90625 C 9.53125 0.90625 6.9375 0.015625 4.96875 -1.765625 C 3.007812 -3.554688 2.03125 -5.972656 2.03125 -9.015625 C 2.03125 -11.921875 2.882812 -14.316406 4.59375 -16.203125 C 6.3125 -18.097656 8.875 -19.296875 12.28125 -19.796875 L 20.640625 -21.015625 C 21.773438 -21.179688 22.59375 -21.492188 23.09375 -21.953125 C 23.59375 -22.421875 23.84375 -23.019531 23.84375 -23.75 C 23.84375 -25.0625 23.363281 -26.054688 22.40625 -26.734375 C 21.457031 -27.410156 19.992188 -27.75 18.015625 -27.75 C 15.960938 -27.75 14.460938 -27.375 13.515625 -26.625 C 12.566406 -25.875 11.976562 -24.65625 11.75 -22.96875 L 3.125 -22.96875 C 3.550781 -27.101562 4.953125 -30.117188 7.328125 -32.015625 C 9.710938 -33.910156 13.515625 -34.859375 18.734375 -34.859375 C 22.929688 -34.859375 26.285156 -34.015625 28.796875 -32.328125 C 31.316406 -30.640625 32.578125 -28.207031 32.578125 -25.03125 Z M 32.578125 -6.640625 "/></g></g></g><g fill="#1c94ff" fill-opacity="1"><g transform="translate(252.054921, 65.450689)"><g><path d="M 35.078125 0 L 26.125 0 L 26.125 -21.109375 C 26.125 -23.078125 25.675781 -24.609375 24.78125 -25.703125 C 23.882812 -26.796875 22.398438 -27.34375 20.328125 -27.34375 C 18.179688 -27.34375 16.472656 -26.640625 15.203125 -25.234375 C 13.941406 -23.828125 13.3125 -21.910156 13.3125 -19.484375 L 13.3125 0 L 4.359375 0 L 4.359375 -33.984375 L 12.9375 -33.984375 L 12.9375 -28.984375 L 13.0625 -28.984375 C 15.195312 -32.898438 18.570312 -34.859375 23.1875 -34.859375 C 26.664062 -34.859375 29.515625 -33.863281 31.734375 -31.875 C 33.960938 -29.882812 35.078125 -27.09375 35.078125 -23.5 Z M 35.078125 0 "/></g></g></g><g fill="#1c94ff" fill-opacity="1"><g transform="translate(291.013274, 65.450689)"><g><path d="M 13.65625 0 L 4.078125 0 L 4.078125 -9.328125 L 13.65625 -9.328125 Z M 13.65625 0 "/></g></g></g></svg>