<svg xmlns="http://www.w3.org/2000/svg" xmlns:xlink="http://www.w3.org/1999/xlink" width="500" zoomAndPan="magnify" viewBox="0 0 375 129.000003" height="172" preserveAspectRatio="xMidYMid meet" version="1.0"><defs><g/></defs><g fill="#1c94ff" fill-opacity="1"><g transform="translate(57.79917, 110.221425)"><g><path d="M 0.515625 -23.5 L 5.734375 -23.5 L 9.078125 -8.5 L 9.484375 -6.15625 L 9.546875 -6.15625 L 9.921875 -8.5 L 12.8125 -23.5 L 18.015625 -23.5 L 21.109375 -8.578125 L 21.53125 -6.15625 L 21.59375 -6.15625 L 22.015625 -8.578125 L 25.40625 -23.5 L 30.40625 -23.5 L 23.78125 0 L 19.0625 0 L 15.75 -16.5 L 15.4375 -18.5 L 15.375 -18.5 L 15.078125 -16.5 L 11.734375 0 L 7.15625 0 Z M 0.515625 -23.5 "/></g></g></g><g fill="#1c94ff" fill-opacity="1"><g transform="translate(88.727548, 110.221425)"><g><path d="M 2.234375 -17.421875 L 6.640625 -17.421875 L 6.640625 -14.40625 L 6.703125 -14.40625 C 7.234375 -15.539062 7.875 -16.398438 8.625 -16.984375 C 9.382812 -17.578125 10.332031 -17.875 11.46875 -17.875 C 11.769531 -17.875 12.066406 -17.851562 12.359375 -17.8125 L 12.359375 -13.15625 C 12.140625 -13.195312 11.703125 -13.21875 11.046875 -13.21875 C 9.617188 -13.21875 8.554688 -12.875 7.859375 -12.1875 C 7.171875 -11.5 6.828125 -10.457031 6.828125 -9.0625 L 6.828125 0 L 2.234375 0 Z M 2.234375 -17.421875 "/></g></g></g><g fill="#1c94ff" fill-opacity="1"><g transform="translate(101.64234, 110.221425)"><g><path d="M 6.828125 -19.484375 L 2.234375 -19.484375 L 2.234375 -23.734375 L 6.828125 -23.734375 Z M 6.828125 -17.421875 L 6.828125 0 L 2.234375 0 L 2.234375 -17.421875 Z M 6.828125 -17.421875 "/></g></g></g><g fill="#1c94ff" fill-opacity="1"><g transform="translate(110.705078, 110.221425)"><g><path d="M 7.359375 -17.421875 L 10.203125 -17.421875 L 10.203125 -14.140625 L 7.359375 -14.140625 L 7.359375 -4.375 C 7.359375 -3.914062 7.484375 -3.617188 7.734375 -3.484375 C 7.984375 -3.347656 8.367188 -3.28125 8.890625 -3.28125 C 9.410156 -3.28125 9.847656 -3.300781 10.203125 -3.34375 L 10.203125 0.0625 C 9.523438 0.164062 8.695312 0.21875 7.71875 0.21875 C 5.90625 0.21875 4.625 -0.0507812 3.875 -0.59375 C 3.132812 -1.144531 2.765625 -2.132812 2.765625 -3.5625 L 2.765625 -14.140625 L 0.40625 -14.140625 L 0.40625 -17.421875 L 2.765625 -17.421875 L 2.765625 -22.125 L 7.359375 -22.125 Z M 7.359375 -17.421875 "/></g></g></g><g fill="#1c94ff" fill-opacity="1"><g transform="translate(121.701832, 110.221425)"><g><path d="M 13.09375 -10.4375 C 13 -11.539062 12.632812 -12.425781 12 -13.09375 C 11.375 -13.769531 10.5625 -14.109375 9.5625 -14.109375 C 7.382812 -14.109375 6.140625 -12.882812 5.828125 -10.4375 Z M 17.609375 -5.09375 C 17.078125 -3.289062 16.125 -1.910156 14.75 -0.953125 C 13.375 -0.00390625 11.773438 0.46875 9.953125 0.46875 C 7.085938 0.46875 4.898438 -0.320312 3.390625 -1.90625 C 1.878906 -3.488281 1.125 -5.679688 1.125 -8.484375 C 1.125 -11.296875 1.832031 -13.5625 3.25 -15.28125 C 4.675781 -17.007812 6.800781 -17.875 9.625 -17.875 C 12.15625 -17.875 14.148438 -17.066406 15.609375 -15.453125 C 17.078125 -13.847656 17.8125 -11.457031 17.8125 -8.28125 L 17.8125 -7.46875 L 5.703125 -7.46875 C 5.804688 -6.050781 6.222656 -4.988281 6.953125 -4.28125 C 7.679688 -3.570312 8.664062 -3.21875 9.90625 -3.21875 C 10.65625 -3.21875 11.300781 -3.390625 11.84375 -3.734375 C 12.382812 -4.078125 12.738281 -4.53125 12.90625 -5.09375 Z M 17.609375 -5.09375 "/></g></g></g><g fill="#1c94ff" fill-opacity="1"><g transform="translate(140.466643, 110.221425)"><g/></g></g><g fill="#1c94ff" fill-opacity="1"><g transform="translate(149.257653, 110.221425)"><g><path d="M 12.90625 0 L 7.984375 0 L 7.984375 -8.875 L -0.125 -23.5 L 5.65625 -23.5 L 10.53125 -13.28125 L 15.1875 -23.5 L 20.75 -23.5 L 12.90625 -8.8125 Z M 12.90625 0 "/></g></g></g><g fill="#1c94ff" fill-opacity="1"><g transform="translate(170.148295, 110.221425)"><g><path d="M 14.1875 -8.71875 C 14.1875 -10.375 13.84375 -11.671875 13.15625 -12.609375 C 12.46875 -13.546875 11.429688 -14.015625 10.046875 -14.015625 C 8.765625 -14.015625 7.753906 -13.570312 7.015625 -12.6875 C 6.273438 -11.8125 5.90625 -10.488281 5.90625 -8.71875 C 5.90625 -6.96875 6.265625 -5.644531 6.984375 -4.75 C 7.703125 -3.851562 8.722656 -3.40625 10.046875 -3.40625 C 11.421875 -3.40625 12.453125 -3.867188 13.140625 -4.796875 C 13.835938 -5.722656 14.1875 -7.03125 14.1875 -8.71875 Z M 18.90625 -8.71875 C 18.90625 -5.863281 18.085938 -3.617188 16.453125 -1.984375 C 14.816406 -0.347656 12.679688 0.46875 10.046875 0.46875 C 7.460938 0.46875 5.34375 -0.34375 3.6875 -1.96875 C 2.03125 -3.59375 1.203125 -5.84375 1.203125 -8.71875 C 1.203125 -11.601562 2.03125 -13.847656 3.6875 -15.453125 C 5.34375 -17.066406 7.460938 -17.875 10.046875 -17.875 C 12.703125 -17.875 14.84375 -17.050781 16.46875 -15.40625 C 18.09375 -13.757812 18.90625 -11.53125 18.90625 -8.71875 Z M 18.90625 -8.71875 "/></g></g></g><g fill="#1c94ff" fill-opacity="1"><g transform="translate(190.255732, 110.221425)"><g><path d="M 17.84375 0 L 13.453125 0 L 13.453125 -2.46875 L 13.390625 -2.46875 C 12.234375 -0.507812 10.46875 0.46875 8.09375 0.46875 C 6.25 0.46875 4.796875 -0.0703125 3.734375 -1.15625 C 2.679688 -2.25 2.15625 -3.851562 2.15625 -5.96875 L 2.15625 -17.421875 L 6.75 -17.421875 L 6.75 -6.625 C 6.75 -5.507812 7.003906 -4.691406 7.515625 -4.171875 C 8.023438 -3.660156 8.757812 -3.40625 9.71875 -3.40625 C 10.75 -3.40625 11.59375 -3.75 12.25 -4.4375 C 12.914062 -5.125 13.25 -6.101562 13.25 -7.375 L 13.25 -17.421875 L 17.84375 -17.421875 Z M 17.84375 0 "/></g></g></g><g fill="#1c94ff" fill-opacity="1"><g transform="translate(210.331202, 110.221425)"><g><path d="M 2.234375 -17.421875 L 6.640625 -17.421875 L 6.640625 -14.40625 L 6.703125 -14.40625 C 7.234375 -15.539062 7.875 -16.398438 8.625 -16.984375 C 9.382812 -17.578125 10.332031 -17.875 11.46875 -17.875 C 11.769531 -17.875 12.066406 -17.851562 12.359375 -17.8125 L 12.359375 -13.15625 C 12.140625 -13.195312 11.703125 -13.21875 11.046875 -13.21875 C 9.617188 -13.21875 8.554688 -12.875 7.859375 -12.1875 C 7.171875 -11.5 6.828125 -10.457031 6.828125 -9.0625 L 6.828125 0 L 2.234375 0 Z M 2.234375 -17.421875 "/></g></g></g><g fill="#1c94ff" fill-opacity="1"><g transform="translate(223.245995, 110.221425)"><g/></g></g><g fill="#1c94ff" fill-opacity="1"><g transform="translate(232.037005, 110.221425)"><g><path d="M 21.390625 -23.5 L 21.390625 0 L 16.484375 0 L 16.484375 -10.53125 L 7.296875 -10.53125 L 7.296875 0 L 2.390625 0 L 2.390625 -23.5 L 7.296875 -23.5 L 7.296875 -14.59375 L 16.484375 -14.59375 L 16.484375 -23.5 Z M 21.390625 -23.5 "/></g></g></g><g fill="#1c94ff" fill-opacity="1"><g transform="translate(255.820694, 110.221425)"><g><path d="M 13.09375 -10.4375 C 13 -11.539062 12.632812 -12.425781 12 -13.09375 C 11.375 -13.769531 10.5625 -14.109375 9.5625 -14.109375 C 7.382812 -14.109375 6.140625 -12.882812 5.828125 -10.4375 Z M 17.609375 -5.09375 C 17.078125 -3.289062 16.125 -1.910156 14.75 -0.953125 C 13.375 -0.00390625 11.773438 0.46875 9.953125 0.46875 C 7.085938 0.46875 4.898438 -0.320312 3.390625 -1.90625 C 1.878906 -3.488281 1.125 -5.679688 1.125 -8.484375 C 1.125 -11.296875 1.832031 -13.5625 3.25 -15.28125 C 4.675781 -17.007812 6.800781 -17.875 9.625 -17.875 C 12.15625 -17.875 14.148438 -17.066406 15.609375 -15.453125 C 17.078125 -13.847656 17.8125 -11.457031 17.8125 -8.28125 L 17.8125 -7.46875 L 5.703125 -7.46875 C 5.804688 -6.050781 6.222656 -4.988281 6.953125 -4.28125 C 7.679688 -3.570312 8.664062 -3.21875 9.90625 -3.21875 C 10.65625 -3.21875 11.300781 -3.390625 11.84375 -3.734375 C 12.382812 -4.078125 12.738281 -4.53125 12.90625 -5.09375 Z M 17.609375 -5.09375 "/></g></g></g><g fill="#1c94ff" fill-opacity="1"><g transform="translate(274.585494, 110.221425)"><g><path d="M 12.234375 -8.4375 C 11.660156 -8.039062 10.5625 -7.726562 8.9375 -7.5 C 7.570312 -7.300781 6.675781 -6.992188 6.25 -6.578125 C 5.832031 -6.160156 5.625 -5.601562 5.625 -4.90625 C 5.625 -4.21875 5.847656 -3.695312 6.296875 -3.34375 C 6.742188 -2.988281 7.273438 -2.8125 7.890625 -2.8125 C 9.066406 -2.8125 10.082031 -3.140625 10.9375 -3.796875 C 11.800781 -4.453125 12.234375 -5.269531 12.234375 -6.25 Z M 16.703125 -3.40625 C 16.703125 -2.601562 16.773438 -1.972656 16.921875 -1.515625 C 17.078125 -1.066406 17.335938 -0.789062 17.703125 -0.6875 L 17.703125 0 L 12.796875 0 C 12.585938 -0.582031 12.441406 -1.269531 12.359375 -2.0625 C 10.867188 -0.375 8.925781 0.46875 6.53125 0.46875 C 4.882812 0.46875 3.554688 0.0078125 2.546875 -0.90625 C 1.535156 -1.820312 1.03125 -3.0625 1.03125 -4.625 C 1.03125 -6.113281 1.46875 -7.34375 2.34375 -8.3125 C 3.226562 -9.28125 4.546875 -9.894531 6.296875 -10.15625 L 10.578125 -10.765625 C 11.160156 -10.859375 11.582031 -11.023438 11.84375 -11.265625 C 12.101562 -11.503906 12.234375 -11.804688 12.234375 -12.171875 C 12.234375 -12.847656 11.984375 -13.359375 11.484375 -13.703125 C 10.992188 -14.046875 10.242188 -14.21875 9.234375 -14.21875 C 8.179688 -14.21875 7.410156 -14.023438 6.921875 -13.640625 C 6.441406 -13.265625 6.144531 -12.644531 6.03125 -11.78125 L 1.59375 -11.78125 C 1.820312 -13.894531 2.546875 -15.4375 3.765625 -16.40625 C 4.984375 -17.382812 6.929688 -17.875 9.609375 -17.875 C 11.753906 -17.875 13.472656 -17.441406 14.765625 -16.578125 C 16.054688 -15.710938 16.703125 -14.460938 16.703125 -12.828125 Z M 16.703125 -3.40625 "/></g></g></g><g fill="#1c94ff" fill-opacity="1"><g transform="translate(293.286381, 110.221425)"><g><path d="M 2.234375 -17.421875 L 6.640625 -17.421875 L 6.640625 -14.40625 L 6.703125 -14.40625 C 7.234375 -15.539062 7.875 -16.398438 8.625 -16.984375 C 9.382812 -17.578125 10.332031 -17.875 11.46875 -17.875 C 11.769531 -17.875 12.066406 -17.851562 12.359375 -17.8125 L 12.359375 -13.15625 C 12.140625 -13.195312 11.703125 -13.21875 11.046875 -13.21875 C 9.617188 -13.21875 8.554688 -12.875 7.859375 -12.1875 C 7.171875 -11.5 6.828125 -10.457031 6.828125 -9.0625 L 6.828125 0 L 2.234375 0 Z M 2.234375 -17.421875 "/></g></g></g><g fill="#1c94ff" fill-opacity="1"><g transform="translate(306.201174, 110.221425)"><g><path d="M 7.359375 -17.421875 L 10.203125 -17.421875 L 10.203125 -14.140625 L 7.359375 -14.140625 L 7.359375 -4.375 C 7.359375 -3.914062 7.484375 -3.617188 7.734375 -3.484375 C 7.984375 -3.347656 8.367188 -3.28125 8.890625 -3.28125 C 9.410156 -3.28125 9.847656 -3.300781 10.203125 -3.34375 L 10.203125 0.0625 C 9.523438 0.164062 8.695312 0.21875 7.71875 0.21875 C 5.90625 0.21875 4.625 -0.0507812 3.875 -0.59375 C 3.132812 -1.144531 2.765625 -2.132812 2.765625 -3.5625 L 2.765625 -14.140625 L 0.40625 -14.140625 L 0.40625 -17.421875 L 2.765625 -17.421875 L 2.765625 -22.125 L 7.359375 -22.125 Z M 7.359375 -17.421875 "/></g></g></g><g fill="#1c94ff" fill-opacity="1"><g transform="translate(66.239161, 65.450689)"><g><path d="M 14.25 -8.296875 L 37.03125 -8.296875 L 37.03125 0 L 4.671875 0 L 4.671875 -45.828125 L 14.25 -45.828125 Z M 14.25 -8.296875 "/></g></g></g><g fill="#1c94ff" fill-opacity="1"><g transform="translate(104.356013, 65.450689)"><g><path d="M 25.53125 -20.359375 C 25.34375 -22.515625 24.632812 -24.25 23.40625 -25.5625 C 22.1875 -26.875 20.597656 -27.53125 18.640625 -27.53125 C 14.398438 -27.53125 11.976562 -25.140625 11.375 -20.359375 Z M 34.359375 -9.9375 C 33.316406 -6.425781 31.453125 -3.738281 28.765625 -1.875 C 26.085938 -0.0195312 22.972656 0.90625 19.421875 0.90625 C 13.828125 0.90625 9.554688 -0.632812 6.609375 -3.71875 C 3.660156 -6.8125 2.1875 -11.085938 2.1875 -16.546875 C 2.1875 -22.035156 3.570312 -26.457031 6.34375 -29.8125 C 9.113281 -33.175781 13.253906 -34.859375 18.765625 -34.859375 C 23.710938 -34.859375 27.609375 -33.285156 30.453125 -30.140625 C 33.304688 -27.003906 34.734375 -22.335938 34.734375 -16.140625 L 34.734375 -14.5625 L 11.125 -14.5625 C 11.332031 -11.789062 12.144531 -9.710938 13.5625 -8.328125 C 14.976562 -6.953125 16.898438 -6.265625 19.328125 -6.265625 C 20.785156 -6.265625 22.039062 -6.601562 23.09375 -7.28125 C 24.15625 -7.957031 24.84375 -8.84375 25.15625 -9.9375 Z M 34.359375 -9.9375 "/></g></g></g><g fill="#1c94ff" fill-opacity="1"><g transform="translate(140.945699, 65.450689)"><g><path d="M 13.3125 0 L 4.359375 0 L 4.359375 -45.828125 L 13.3125 -45.828125 L 13.3125 -21.078125 L 24.53125 -33.984375 L 35.53125 -33.984375 L 23.53125 -20.828125 L 35.84375 0 L 25.125 0 L 17.015625 -14.5625 L 13.3125 -10.71875 Z M 13.3125 0 "/></g></g></g><g fill="#1c94ff" fill-opacity="1"><g transform="translate(176.63155, 65.450689)"><g><path d="M 35.078125 0 L 26.125 0 L 26.125 -21.109375 C 26.125 -23.179688 25.648438 -24.738281 24.703125 -25.78125 C 23.753906 -26.820312 22.296875 -27.34375 20.328125 -27.34375 C 18.097656 -27.34375 16.367188 -26.601562 15.140625 -25.125 C 13.921875 -23.644531 13.3125 -21.765625 13.3125 -19.484375 L 13.3125 0 L 4.359375 0 L 4.359375 -45.828125 L 13.3125 -45.828125 L 13.3125 -29.640625 L 13.4375 -29.640625 C 15.46875 -33.117188 18.78125 -34.859375 23.375 -34.859375 C 26.914062 -34.859375 29.75 -33.820312 31.875 -31.75 C 34.007812 -29.6875 35.078125 -26.9375 35.078125 -23.5 Z M 35.078125 0 "/></g></g></g><g fill="#1c94ff" fill-opacity="1"><g transform="translate(215.589903, 65.450689)"><g><path d="M 23.84375 -16.453125 C 22.75 -15.691406 20.609375 -15.082031 17.421875 -14.625 C 14.765625 -14.25 13.023438 -13.648438 12.203125 -12.828125 C 11.378906 -12.003906 10.96875 -10.921875 10.96875 -9.578125 C 10.96875 -8.222656 11.40625 -7.203125 12.28125 -6.515625 C 13.15625 -5.828125 14.195312 -5.484375 15.40625 -5.484375 C 17.6875 -5.484375 19.660156 -6.125 21.328125 -7.40625 C 23.003906 -8.6875 23.84375 -10.28125 23.84375 -12.1875 Z M 32.578125 -6.640625 C 32.578125 -5.078125 32.722656 -3.851562 33.015625 -2.96875 C 33.304688 -2.09375 33.816406 -1.550781 34.546875 -1.34375 L 34.546875 0 L 24.96875 0 C 24.550781 -1.144531 24.257812 -2.484375 24.09375 -4.015625 C 21.1875 -0.734375 17.40625 0.90625 12.75 0.90625 C 9.53125 0.90625 6.9375 0.015625 4.96875 -1.765625 C 3.007812 -3.554688 2.03125 -5.972656 2.03125 -9.015625 C 2.03125 -11.921875 2.882812 -14.316406 4.59375 -16.203125 C 6.3125 -18.097656 8.875 -19.296875 12.28125 -19.796875 L 20.640625 -21.015625 C 21.773438 -21.179688 22.59375 -21.492188 23.09375 -21.953125 C 23.59375 -22.421875 23.84375 -23.019531 23.84375 -23.75 C 23.84375 -25.0625 23.363281 -26.054688 22.40625 -26.734375 C 21.457031 -27.410156 19.992188 -27.75 18.015625 -27.75 C 15.960938 -27.75 14.460938 -27.375 13.515625 -26.625 C 12.566406 -25.875 11.976562 -24.65625 11.75 -22.96875 L 3.125 -22.96875 C 3.550781 -27.101562 4.953125 -30.117188 7.328125 -32.015625 C 9.710938 -33.910156 13.515625 -34.859375 18.734375 -34.859375 C 22.929688 -34.859375 26.285156 -34.015625 28.796875 -32.328125 C 31.316406 -30.640625 32.578125 -28.207031 32.578125 -25.03125 Z M 32.578125 -6.640625 "/></g></g></g><g fill="#1c94ff" fill-opacity="1"><g transform="translate(252.054921, 65.450689)"><g><path d="M 35.078125 0 L 26.125 0 L 26.125 -21.109375 C 26.125 -23.078125 25.675781 -24.609375 24.78125 -25.703125 C 23.882812 -26.796875 22.398438 -27.34375 20.328125 -27.34375 C 18.179688 -27.34375 16.472656 -26.640625 15.203125 -25.234375 C 13.941406 -23.828125 13.3125 -21.910156 13.3125 -19.484375 L 13.3125 0 L 4.359375 0 L 4.359375 -33.984375 L 12.9375 -33.984375 L 12.9375 -28.984375 L 13.0625 -28.984375 C 15.195312 -32.898438 18.570312 -34.859375 23.1875 -34.859375 C 26.664062 -34.859375 29.515625 -33.863281 31.734375 -31.875 C 33.960938 -29.882812 35.078125 -27.09375 35.078125 -23.5 Z M 35.078125 0 "/></g></g></g><g fill="#1c94ff" fill-opacity="1"><g transform="translate(291.013274, 65.450689)"><g><path d="M 13.65625 0 L 4.078125 0 L 4.078125 -9.328125 L 13.65625 -9.328125 Z M 13.65625 0 "/></g></g></g></svg>