<svg xmlns="http://www.w3.org/2000/svg" xmlns:xlink="http://www.w3.org/1999/xlink" width="500" zoomAndPan="magnify" viewBox="0 0 375 129.000003" height="172" preserveAspectRatio="xMidYMid meet" version="1.0"><defs><g/></defs><g fill="#335eea" fill-opacity="1"><g transform="translate(3.017013, 102.117937)"><g><path d="M 21.671875 -12.609375 L 56.34375 -12.609375 L 56.34375 0 L 7.109375 0 L 7.109375 -69.71875 L 21.671875 -69.71875 Z M 21.671875 -12.609375 "/></g></g></g><g fill="#335eea" fill-opacity="1"><g transform="translate(61.009771, 102.117937)"><g><path d="M 38.84375 -30.96875 C 38.550781 -34.257812 37.472656 -36.898438 35.609375 -38.890625 C 33.742188 -40.878906 31.328125 -41.875 28.359375 -41.875 C 21.910156 -41.875 18.226562 -38.238281 17.3125 -30.96875 Z M 52.265625 -15.125 C 50.679688 -9.78125 47.847656 -5.691406 43.765625 -2.859375 C 39.691406 -0.0351562 34.953125 1.375 29.546875 1.375 C 21.035156 1.375 14.535156 -0.96875 10.046875 -5.65625 C 5.554688 -10.351562 3.3125 -16.863281 3.3125 -25.1875 C 3.3125 -33.53125 5.421875 -40.253906 9.640625 -45.359375 C 13.867188 -50.460938 20.171875 -53.015625 28.546875 -53.015625 C 36.078125 -53.015625 42.003906 -50.628906 46.328125 -45.859375 C 50.660156 -41.085938 52.828125 -33.988281 52.828125 -24.5625 L 52.828125 -22.140625 L 16.9375 -22.140625 C 17.25 -17.941406 18.476562 -14.789062 20.625 -12.6875 C 22.78125 -10.582031 25.707031 -9.53125 29.40625 -9.53125 C 31.613281 -9.53125 33.523438 -10.039062 35.140625 -11.0625 C 36.753906 -12.09375 37.796875 -13.445312 38.265625 -15.125 Z M 52.265625 -15.125 "/></g></g></g><g fill="#335eea" fill-opacity="1"><g transform="translate(116.67902, 102.117937)"><g><path d="M 20.25 0 L 6.640625 0 L 6.640625 -69.71875 L 20.25 -69.71875 L 20.25 -32.0625 L 37.328125 -51.6875 L 54.0625 -51.6875 L 35.8125 -31.671875 L 54.53125 0 L 38.21875 0 L 25.890625 -22.140625 L 20.25 -16.3125 Z M 20.25 0 "/></g></g></g><g fill="#335eea" fill-opacity="1"><g transform="translate(170.97314, 102.117937)"><g><path d="M 53.359375 0 L 39.734375 0 L 39.734375 -32.109375 C 39.734375 -35.265625 39.015625 -37.632812 37.578125 -39.21875 C 36.140625 -40.800781 33.921875 -41.59375 30.921875 -41.59375 C 27.535156 -41.59375 24.910156 -40.46875 23.046875 -38.21875 C 21.179688 -35.976562 20.25 -33.117188 20.25 -29.640625 L 20.25 0 L 6.640625 0 L 6.640625 -69.71875 L 20.25 -69.71875 L 20.25 -45.09375 L 20.4375 -45.09375 C 23.539062 -50.375 28.582031 -53.015625 35.5625 -53.015625 C 40.9375 -53.015625 45.242188 -51.441406 48.484375 -48.296875 C 51.734375 -45.148438 53.359375 -40.972656 53.359375 -35.765625 Z M 53.359375 0 "/></g></g></g><g fill="#335eea" fill-opacity="1"><g transform="translate(230.246179, 102.117937)"><g><path d="M 36.28125 -25.046875 C 34.601562 -23.867188 31.347656 -22.929688 26.515625 -22.234375 C 22.460938 -21.671875 19.8125 -20.765625 18.5625 -19.515625 C 17.3125 -18.265625 16.6875 -16.613281 16.6875 -14.5625 C 16.6875 -12.507812 17.347656 -10.957031 18.671875 -9.90625 C 20.003906 -8.863281 21.585938 -8.34375 23.421875 -8.34375 C 26.898438 -8.34375 29.910156 -9.316406 32.453125 -11.265625 C 35.003906 -13.210938 36.28125 -15.640625 36.28125 -18.546875 Z M 49.5625 -10.09375 C 49.5625 -7.726562 49.78125 -5.875 50.21875 -4.53125 C 50.664062 -3.1875 51.441406 -2.359375 52.546875 -2.046875 L 52.546875 0 L 37.984375 0 C 37.347656 -1.738281 36.90625 -3.78125 36.65625 -6.125 C 32.226562 -1.125 26.472656 1.375 19.390625 1.375 C 14.492188 1.375 10.550781 0.015625 7.5625 -2.703125 C 4.570312 -5.421875 3.078125 -9.085938 3.078125 -13.703125 C 3.078125 -18.128906 4.378906 -21.78125 6.984375 -24.65625 C 9.597656 -27.53125 13.5 -29.347656 18.6875 -30.109375 L 31.390625 -31.96875 C 33.128906 -32.21875 34.378906 -32.695312 35.140625 -33.40625 C 35.898438 -34.125 36.28125 -35.035156 36.28125 -36.140625 C 36.28125 -38.128906 35.550781 -39.632812 34.09375 -40.65625 C 32.644531 -41.6875 30.414062 -42.203125 27.40625 -42.203125 C 24.28125 -42.203125 22 -41.632812 20.5625 -40.5 C 19.125 -39.363281 18.226562 -37.515625 17.875 -34.953125 L 4.75 -34.953125 C 5.40625 -41.242188 7.539062 -45.828125 11.15625 -48.703125 C 14.78125 -51.578125 20.5625 -53.015625 28.5 -53.015625 C 34.882812 -53.015625 39.988281 -51.734375 43.8125 -49.171875 C 47.644531 -46.617188 49.5625 -42.921875 49.5625 -38.078125 Z M 49.5625 -10.09375 "/></g></g></g><g fill="#335eea" fill-opacity="1"><g transform="translate(285.725743, 102.117937)"><g><path d="M 53.359375 0 L 39.734375 0 L 39.734375 -32.109375 C 39.734375 -35.109375 39.050781 -37.4375 37.6875 -39.09375 C 36.332031 -40.757812 34.078125 -41.59375 30.921875 -41.59375 C 27.660156 -41.59375 25.066406 -40.523438 23.140625 -38.390625 C 21.210938 -36.253906 20.25 -33.335938 20.25 -29.640625 L 20.25 0 L 6.640625 0 L 6.640625 -51.6875 L 19.6875 -51.6875 L 19.6875 -44.109375 L 19.875 -44.109375 C 23.125 -50.046875 28.257812 -53.015625 35.28125 -53.015625 C 40.5625 -53.015625 44.894531 -51.503906 48.28125 -48.484375 C 51.664062 -45.472656 53.359375 -41.234375 53.359375 -35.765625 Z M 53.359375 0 "/></g></g></g><g fill="#335eea" fill-opacity="1"><g transform="translate(344.998782, 102.117937)"><g><path d="M 20.765625 0 L 6.21875 0 L 6.21875 -14.1875 L 20.765625 -14.1875 Z M 20.765625 0 "/></g></g></g></svg>